<svg width="20" height="20" viewBox="0 0 20 20" fill="none" xmlns="http://www.w3.org/2000/svg">
<mask id="mask0_659_4581" style="mask-type:alpha" maskUnits="userSpaceOnUse" x="0" y="0" width="20" height="20">
<rect width="20" height="20" fill="#D9D9D9"/>
</mask>
<g mask="url(#mask0_659_4581)">
<path d="M12.7087 4.16667C12.417 4.16667 12.1705 4.06598 11.9691 3.86459C11.7677 3.6632 11.667 3.41667 11.667 3.12501C11.667 2.83334 11.7677 2.58681 11.9691 2.38542C12.1705 2.18403 12.417 2.08334 12.7087 2.08334C13.0003 2.08334 13.2469 2.18403 13.4482 2.38542C13.6496 2.58681 13.7503 2.83334 13.7503 3.12501C13.7503 3.41667 13.6496 3.6632 13.4482 3.86459C13.2469 4.06598 13.0003 4.16667 12.7087 4.16667ZM12.7087 17.9167C12.417 17.9167 12.1705 17.816 11.9691 17.6146C11.7677 17.4132 11.667 17.1667 11.667 16.875C11.667 16.5833 11.7677 16.3368 11.9691 16.1354C12.1705 15.934 12.417 15.8333 12.7087 15.8333C13.0003 15.8333 13.2469 15.934 13.4482 16.1354C13.6496 16.3368 13.7503 16.5833 13.7503 16.875C13.7503 17.1667 13.6496 17.4132 13.4482 17.6146C13.2469 17.816 13.0003 17.9167 12.7087 17.9167ZM16.042 7.08334C15.7503 7.08334 15.5038 6.98264 15.3024 6.78126C15.101 6.57987 15.0003 6.33334 15.0003 6.04167C15.0003 5.75 15.101 5.50348 15.3024 5.30209C15.5038 5.1007 15.7503 5.00001 16.042 5.00001C16.3337 5.00001 16.5802 5.1007 16.7816 5.30209C16.983 5.50348 17.0837 5.75 17.0837 6.04167C17.0837 6.33334 16.983 6.57987 16.7816 6.78126C16.5802 6.98264 16.3337 7.08334 16.042 7.08334ZM16.042 15C15.7503 15 15.5038 14.8993 15.3024 14.6979C15.101 14.4965 15.0003 14.25 15.0003 13.9583C15.0003 13.6667 15.101 13.4201 15.3024 13.2188C15.5038 13.0174 15.7503 12.9167 16.042 12.9167C16.3337 12.9167 16.5802 13.0174 16.7816 13.2188C16.983 13.4201 17.0837 13.6667 17.0837 13.9583C17.0837 14.25 16.983 14.4965 16.7816 14.6979C16.5802 14.8993 16.3337 15 16.042 15ZM17.292 11.0417C17.0003 11.0417 16.7538 10.941 16.5524 10.7396C16.351 10.5382 16.2503 10.2917 16.2503 10C16.2503 9.70834 16.351 9.46181 16.5524 9.26042C16.7538 9.05903 17.0003 8.95834 17.292 8.95834C17.5837 8.95834 17.8302 9.05903 18.0316 9.26042C18.233 9.46181 18.3337 9.70834 18.3337 10C18.3337 10.2917 18.233 10.5382 18.0316 10.7396C17.8302 10.941 17.5837 11.0417 17.292 11.0417ZM10.0003 18.3333C8.84755 18.3333 7.76421 18.1146 6.75033 17.6771C5.73644 17.2396 4.85449 16.6458 4.10449 15.8958C3.35449 15.1458 2.76074 14.2639 2.32324 13.25C1.88574 12.2361 1.66699 11.1528 1.66699 10C1.66699 8.84723 1.88574 7.76389 2.32324 6.75C2.76074 5.73612 3.35449 4.85417 4.10449 4.10417C4.85449 3.35417 5.73644 2.76042 6.75033 2.32292C7.76421 1.88542 8.84755 1.66667 10.0003 1.66667V3.33334C8.13921 3.33334 6.56283 3.97917 5.27116 5.27084C3.97949 6.56251 3.33366 8.13889 3.33366 10C3.33366 11.8611 3.97949 13.4375 5.27116 14.7292C6.56283 16.0208 8.13921 16.6667 10.0003 16.6667V18.3333ZM12.7503 13.9167L9.16699 10.3333V5.83334H10.8337V9.66667L13.917 12.75L12.7503 13.9167Z" fill="#1C203B"/>
</g>
</svg>
