<svg width="40" height="40" viewBox="0 0 40 40" fill="none" xmlns="http://www.w3.org/2000/svg">
<mask id="mask0_352_2100" style="mask-type:alpha" maskUnits="userSpaceOnUse" x="0" y="0" width="40" height="40">
<rect width="40" height="40" fill="#D9D9D9"/>
</mask>
<g mask="url(#mask0_352_2100)">
<path d="M20.0002 34.9721L18.0556 33.2221C15.1617 30.581 12.7693 28.3026 10.8785 26.3871C8.98739 24.4715 7.48169 22.7568 6.36141 21.2429C5.24086 19.729 4.45614 18.3518 4.00725 17.1112C3.55808 15.8704 3.3335 14.6111 3.3335 13.3333C3.3335 10.7933 4.1853 8.67221 5.88891 6.96999C7.5928 5.26777 9.70391 4.41666 12.2222 4.41666C13.7595 4.41666 15.1947 4.76846 16.5281 5.47207C17.8614 6.17596 19.0188 7.18527 20.0002 8.49999C21.0927 7.12971 22.2917 6.10652 23.5972 5.43041C24.9028 4.75457 26.2964 4.41666 27.7781 4.41666C30.2964 4.41666 32.4075 5.26777 34.1114 6.96999C35.815 8.67221 36.6668 10.7933 36.6668 13.3333C36.6668 14.6111 36.4422 15.8704 35.9931 17.1112C35.5442 18.3518 34.7595 19.729 33.6389 21.2429C32.5186 22.7568 31.0129 24.4715 29.1218 26.3871C27.231 28.3026 24.8386 30.581 21.9447 33.2221L20.0002 34.9721ZM20.0002 31.2779C22.7638 28.7593 25.0381 26.5996 26.8231 24.7987C28.6078 22.9976 30.0234 21.4235 31.0697 20.0762C32.1159 18.729 32.8473 17.5287 33.2639 16.4754C33.6806 15.4221 33.8889 14.3761 33.8889 13.3375C33.8889 11.5569 33.3149 10.0879 32.1668 8.93041C31.0188 7.77319 29.5579 7.19457 27.7843 7.19457C26.3949 7.19457 25.1089 7.60888 23.9264 8.43749C22.7442 9.2661 21.8336 10.398 21.1947 11.8333H18.7781C18.1575 10.4167 17.2561 9.2893 16.0739 8.45124C14.8914 7.61346 13.6054 7.19457 12.216 7.19457C10.4424 7.19457 8.98155 7.77319 7.8335 8.93041C6.68544 10.0879 6.11141 11.5585 6.11141 13.3421C6.11141 14.3826 6.31975 15.4329 6.73641 16.4929C7.15308 17.5532 7.88447 18.7615 8.93058 20.1179C9.97697 21.4746 11.3984 23.0487 13.1947 24.8404C14.9909 26.6321 17.2593 28.7779 20.0002 31.2779Z" fill="#1C1B1F"/>
</g>
</svg>
