<svg width="26" height="26" viewBox="0 0 26 26" fill="none" xmlns="http://www.w3.org/2000/svg">
<rect width="26" height="26" fill="white"/>
<path d="M24.1806 4H1.81944C1.09074 4 0.5 4.42533 0.5 4.95V5.05C0.5 5.57467 1.09074 6 1.81944 6H24.1806C24.9093 6 25.5 5.57467 25.5 5.05V4.95C25.5 4.42533 24.9093 4 24.1806 4Z" fill="#0B1126"/>
<path d="M24.7611 12H12.2389C11.8308 12 11.5 12.4253 11.5 12.95V13.05C11.5 13.5747 11.8308 14 12.2389 14H24.7611C25.1692 14 25.5 13.5747 25.5 13.05V12.95C25.5 12.4253 25.1692 12 24.7611 12Z" fill="#0B1126"/>
<path d="M24.1806 20H1.81944C1.09074 20 0.5 20.4253 0.5 20.95V21.05C0.5 21.5747 1.09074 22 1.81944 22H24.1806C24.9093 22 25.5 21.5747 25.5 21.05V20.95C25.5 20.4253 24.9093 20 24.1806 20Z" fill="#0B1126"/>
</svg>
